<svg width="160" height="160" viewBox="0 0 160 160" fill="none" xmlns="http://www.w3.org/2000/svg">
<circle cx="80" cy="80" r="80" fill="white"/>
<path d="M80 0C35.84 0 0 35.84 0 80C0 124.16 35.84 160 80 160C124.16 160 160 124.16 160 80C160 35.84 124.16 0 80 0ZM80 24C93.28 24 104 34.72 104 48C104 61.28 93.28 72 80 72C66.72 72 56 61.28 56 48C56 34.72 66.72 24 80 24ZM80 137.6C60 137.6 42.32 127.36 32 111.84C32.24 95.92 64 87.2 80 87.2C95.92 87.2 127.76 95.92 128 111.84C117.68 127.36 100 137.6 80 137.6Z" fill="#DDDDDD"/>
</svg>
