<svg width="500" height="680" viewBox="0 0 500 680" fill="none" xmlns="http://www.w3.org/2000/svg">
<rect width="500" height="680" fill="#D9D9D9" fill-opacity="0.26"/>
<g clip-path="url(#clip0_1264_5103)">
<path d="M287.166 294.833V351.333H230.667V294.833H287.166ZM287.166 285.417H230.667C225.487 285.417 221.25 289.654 221.25 294.833V351.333C221.25 356.512 225.487 360.75 230.667 360.75H287.166C292.346 360.75 296.583 356.512 296.583 351.333V294.833C296.583 289.654 292.346 285.417 287.166 285.417ZM247.146 330.946L255.103 341.587L266.779 326.991L282.458 346.625H235.375L247.146 330.946ZM202.417 304.25V370.166C202.417 375.346 206.654 379.583 211.833 379.583H277.75V370.166H211.833V304.25H202.417Z" fill="black" fill-opacity="0.1"/>
</g>
<defs>
<clipPath id="clip0_1264_5103">
<rect width="113" height="113" fill="white" transform="translate(193 276)"/>
</clipPath>
</defs>
</svg>
